#!OML:ASF I:\Actors\actors\Patient Classification 1\Patient 1\Session 1\Subject1.ASF
:FULLY-SPECIFIED
:DEGREES
572
root -0.530033 17.5034 7.46241 6.80705 -9.10898 -8.20342
lowerback 1.40801 3.65572 6.24479
upperback -7.63639 5.35456 0.921026
thorax -8.37534 2.23736 -2.93958
lowerneck -15.2361 -2.95398 0.720578
upperneck 25.4815 -5.3679 3.37971
head 10.8099 -1.97686 0.354857
rclavicle -2.5842e-014 1.66979e-014
rhumerus 35.5158 64.4424 -47.5459
rradius 110.341
rwrist 12.2265
rhand 3.30739 -27.3337
rfingers 7.12502
rthumb 28.7542 -55.1395
lclavicle -2.5842e-014 1.66979e-014
lhumerus -43.6138 -22.8839 104.006
lradius 109.489
lwrist 70.6771
lhand -36.3767 -13.6197
lfingers 7.12502
lthumb -9.47333 16.1473
rfemur -2.38603 21.7112 25.674
rtibia 2.63705
rfoot -10.8692 -13.8827
rtoes -5.12946
lfemur 10.4778 -39.861 -17.8248
ltibia -4.25489
lfoot -30.5102 54.1149
ltoes 21.2731
573
root -0.538453 17.5123 7.45927 6.96501 -9.22438 -7.72941
lowerback 1.11925 3.90584 5.65086
upperback -7.55562 5.61869 0.763325
thorax -8.12376 2.4145 -2.77073
lowerneck -15.2869 -3.53448 0.124082
upperneck 25.0632 -6.13214 3.81951
head 10.7135 -2.33917 0.506321
rclavicle 2.44505e-014 4.33351e-014
rhumerus 35.5857 61.4338 -48.4239
rradius 110.47
rwrist 12.9556
rhand 2.64927 -26.1519
rfingers 7.12502
rthumb 28.1254 -54.0627
lclavicle 2.44505e-014 4.33351e-014
lhumerus -43.1147 -23.6662 104.132
lradius 109.673
lwrist 70.5559
lhand -35.999 -13.662
lfingers 7.12502
lthumb -9.10884 16.1213
rfemur -2.65437 22.0805 25.0287
rtibia 2.56636
rfoot -10.9078 -14.1559
rtoes -5.04086
lfemur 10.0691 -39.9426 -18.103
ltibia -4.13823
lfoot -30.7982 54.1623
ltoes 21.4819
574
root -0.54278 17.5179 7.45328 7.06716 -9.22272 -7.53334
lowerback 1.34138 4.17026 5.53463
upperback -7.70916 5.97973 0.575133
thorax -8.38254 2.58089 -2.95374
lowerneck -15.2265 -4.1842 -0.465127
upperneck 24.8668 -6.98272 4.16938
head 10.6852 -2.74778 0.612548
rclavicle -1.03368e-014 -3.97569e-015
rhumerus 34.53 58.1226 -50.6003
rradius 109.974
rwrist 12.8535
rhand 3.01243 -28.0506
rfingers 7.12502
rthumb 28.4724 -55.9039
lclavicle -1.03368e-014 -3.97569e-015
lhumerus -42.9677 -24.5878 104.375
lradius 109.801
lwrist 70.6256
lhand -35.6388 -13.7856
lfingers 7.12502
lthumb -8.76125 16.0126
rfemur -2.77586 22.3481 24.755
rtibia 2.45153
rfoot -10.9203 -14.4233
rtoes -5.00041
lfemur 9.8329 -40.105 -18.1745
ltibia -4.0884
lfoot -30.9779 54.2442
ltoes 21.6554
575
root -0.544483 17.5208 7.44402 7.15133 -9.05056 -7.58555
lowerback 1.83915 4.42278 5.74543
upperback -7.96825 6.37407 0.427076
thorax -8.89217 2.7285 -3.31019
lowerneck -15.1108 -4.85168 -1.1076
upperneck 24.7711 -7.8584 4.54303
head 10.6971 -3.16829 0.731955
rclavicle 2.36554e-014 1.98785e-015
rhumerus 32.9241 54.1102 -53.6401
rradius 108.368
rwrist 9.17047
rhand 2.06302 -27.0276
rfingers 7.12502
rthumb 27.5649 -55.0292
lclavicle 2.36554e-014 1.98785e-015
lhumerus -42.9564 -25.6057 104.766
lradius 109.889
lwrist 70.5517
lhand -35.4503 -14.0367
lfingers 7.12502
lthumb -8.57934 15.769
rfemur -2.81232 22.4796 24.8088
rtibia 2.32829
rfoot -10.9093 -14.7173
rtoes -4.93153
lfemur 9.58235 -40.1636 -17.9246
ltibia -4.0436
lfoot -30.7235 54.1862
ltoes 21.4796
576
root -0.547498 17.5237 7.43515 7.20707 -8.80082 -7.59847
lowerback 2.15187 4.6288 5.81721
upperback -8.09014 6.68246 0.348204
thorax -9.16802 2.85728 -3.49236
lowerneck -14.9789 -5.46997 -1.733
upperneck 24.5077 -8.64894 4.88668
head 10.6486 -3.55643 0.849569
rclavicle 3.01159e-014 2.14687e-014
rhumerus 32.1997 50.0493 -55.9862
rradius 106.31
rwrist 6.95742
rhand 0.401804 -27.8713
rfingers 7.12502
rthumb 25.9752 -56.1162
lclavicle 3.01159e-014 2.14687e-014
lhumerus -42.6286 -26.5683 105.077
lradius 109.953
lwrist 70.3468
lhand -35.3018 -14.2289
lfingers 7.12502
lthumb -8.436 15.5826
rfemur -2.80795 22.5075 24.821
rtibia 2.16954
rfoot -10.8555 -14.9614
rtoes -4.81267
lfemur 9.36103 -40.3094 -17.744
ltibia -3.99808
lfoot -30.5256 54.1382
ltoes 21.3602
577
root -0.552302 17.5252 7.42564 7.23046 -8.46338 -7.59562
lowerback 2.30356 4.79693 5.7902
upperback -8.07652 6.9188 0.336027
thorax -9.22167 2.97291 -3.52328
lowerneck -14.9504 -5.9885 -2.25386
upperneck 24.2123 -9.28769 5.10812
head 10.5984 -3.87808 0.924332
rclavicle -5.15846e-014 -2.26615e-014
rhumerus 31.842 45.352 -58.4701
rradius 102.66
rwrist 6.73859
rhand -1.19677 -25.0648
rfingers 7.12502
rthumb 24.4436 -53.5253
lclavicle -5.15846e-014 -2.26615e-014
lhumerus -41.9967 -27.497 105.319
lradius 109.976
lwrist 70.1611
lhand -35.0679 -14.429
lfingers 7.12502
lthumb -8.21027 15.3915
rfemur -2.75659 22.5712 24.8399
rtibia 2.00308
rfoot -10.8019 -15.2899
rtoes -4.78193
lfemur 9.15353 -40.4751 -17.5695
ltibia -3.98262
lfoot -30.1719 54.0992
ltoes 21.0645
578
root -0.557591 17.5257 7.41394 7.28052 -8.03603 -7.63659
lowerback 2.45846 4.94 5.7944
upperback -8.07517 7.1263 0.343649
thorax -9.29315 3.07183 -3.54997
lowerneck -14.844 -6.47011 -2.79851
upperneck 23.8265 -9.87433 5.3809
head 10.5077 -4.17586 1.03036
rclavicle -7.35503e-015 -5.56597e-015
rhumerus 31.9011 41.02 -60.6978
rradius 98.8781
rwrist 8.18232
rhand -1.21058 -25.6616
rfingers 7.12502
rthumb 24.4303 -54.1239
lclavicle -7.35503e-015 -5.56597e-015
lhumerus -41.371 -28.3799 105.573
lradius 110.014
lwrist 70.0651
lhand -34.9903 -14.5247
lfingers 7.12502
lthumb -8.13542 15.2987
rfemur -2.73416 22.7211 24.9186
rtibia 1.87034
rfoot -10.8091 -15.7438
rtoes -4.44327
lfemur 8.78066 -40.4688 -17.2063
ltibia -3.92754
lfoot -29.2508 53.9741
ltoes 20.2076
579
root -0.562315 17.5268 7.40333 7.32178 -7.56666 -7.67677
lowerback 2.66037 5.03648 5.83192
upperback -8.08522 7.27706 0.340247
thorax -9.40564 3.13751 -3.60828
lowerneck -14.649 -6.92328 -3.23654
upperneck 23.3306 -10.4466 5.67714
head 10.3608 -4.46027 1.13238
rclavicle 6.74874e-014 9.93923e-015
rhumerus 32.1333 36.8549 -63.0419
rradius 94.6873
rwrist 8.35094
rhand 0.407285 -26.0049
rfingers 7.12502
rthumb 25.9804 -54.2491
lclavicle 6.74874e-014 9.93923e-015
lhumerus -40.7848 -29.1441 105.747
lradius 110.091
lwrist 70.1129
lhand -35.1202 -14.3907
lfingers 7.12502
lthumb -8.26073 15.4278
rfemur -2.68822 22.8182 25.0012
rtibia 1.72906
rfoot -10.8219 -16.1589
rtoes -3.69831
lfemur 8.47239 -40.5972 -16.914
ltibia -3.87072
lfoot -28.4465 53.9307
ltoes 19.4488
580
root -0.567166 17.5295 7.39452 7.36098 -7.0034 -7.70105
lowerback 2.85827 5.12112 5.91228
upperback -8.10397 7.41249 0.29808
thorax -9.51674 3.19047 -3.73009
lowerneck -14.5577 -7.39404 -3.84719
upperneck 22.977 -11.0344 6.06391
head 10.3084 -4.74961 1.2855
rclavicle 1.86858e-014 1.47101e-014
rhumerus 32.5372 32.9179 -65.2311
rradius 90.2089
rwrist 6.61762
rhand 1.7916 -26.539
rfingers 7.12502
rthumb 27.3053 -54.5817
lclavicle 1.86858e-014 1.47101e-014
lhumerus -40.2436 -29.9391 105.913
lradius 110.187
lwrist 70.3103
lhand -35.0927 -14.2149
lfingers 7.12502
lthumb -8.23427 15.6047
rfemur -2.63427 22.7815 25.0692
rtibia 1.56466
rfoot -10.7626 -16.5651
rtoes -3.01684
lfemur 8.19179 -40.8947 -16.6698
ltibia -3.82364
lfoot -27.864 53.9153
ltoes 18.8311
581
root -0.573581 17.5341 7.38706 7.41067 -6.32471 -7.73668
lowerback 2.97872 5.21629 6.01979
upperback -8.11581 7.55605 0.231662
thorax -9.56615 3.24749 -3.88421
lowerneck -14.4464 -7.82914 -4.19819
upperneck 22.6272 -11.6012 6.31642
head 10.2333 -5.02287 1.35312
rclavicle -6.65929e-015 -3.18055e-015
rhumerus 33.1052 29.0709 -67.2479
rradius 85.3087
rwrist 3.9608
rhand 2.19939 -26.4031
rfingers 7.12502
rthumb 27.6953 -54.3838
lclavicle -6.65929e-015 -3.18055e-015
lhumerus -39.7085 -30.7962 106.123
lradius 110.268
lwrist 70.5136
lhand -34.9005 -14.0413
lfingers 7.12502
lthumb -8.04871 15.7855
rfemur -2.58388 22.7741 25.1683
rtibia 1.40511
rfoot -10.7314 -17.1367
rtoes -2.259
lfemur 7.78247 -41.0874 -16.2822
ltibia -3.76873
lfoot -27.0481 53.7098
ltoes 18.0207
582
root -0.581197 17.5395 7.3821 7.44767 -5.60981 -7.73314
lowerback 3.06445 5.2831 6.05672
upperback -8.1161 7.65191 0.159133
thorax -9.59329 3.28761 -3.99831
lowerneck -14.2979 -8.22394 -4.6106
upperneck 22.2289 -12.1379 6.74507
head 10.1531 -5.27008 1.49652
rclavicle 6.37105e-014 3.97569e-016
rhumerus 33.8095 25.4394 -69.3062
rradius 80.2216
rwrist 1.47391
rhand 2.63148 -26.3077
rfingers 7.12502
rthumb 28.1084 -54.2213
lclavicle 6.37105e-014 3.97569e-016
lhumerus -39.1975 -31.5448 106.28
lradius 110.352
lwrist 70.6129
lhand -34.8144 -13.9607
lfingers 7.12502
lthumb -7.96564 15.8692
rfemur -2.50607 22.8235 25.2361
rtibia 1.24873
rfoot -10.7699 -17.7788
rtoes -1.3891
lfemur 7.2862 -41.0373 -15.842
ltibia -3.71148
lfoot -25.8654 53.2502
ltoes 17.1207
583
root -0.58818 17.5441 7.38026 7.4716 -4.89483 -7.68552
lowerback 3.14844 5.34161 6.0522
upperback -8.13126 7.7313 0.0566693
thorax -9.63795 3.32038 -4.12127
lowerneck -14.0879 -8.5662 -4.95447
upperneck 21.8069 -12.6201 7.19136
head 10.0512 -5.48795 1.64483
rclavicle -5.68524e-014 -3.26007e-014
rhumerus 34.5444 22.0685 -71.4187
rradius 75.2473
rwrist 0.0781341
rhand 3.9948 -27.4178
rfingers 7.12502
rthumb 29.4107 -55.1102
lclavicle -5.68524e-014 -3.26007e-014
lhumerus -38.8073 -32.2304 106.402
lradius 110.488
lwrist 70.6825
lhand -34.8832 -13.986
lfingers 7.12502
lthumb -8.03205 15.8414
rfemur -2.4125 22.8056 25.2487
rtibia 1.10208
rfoot -10.8124 -18.322
rtoes -0.847855
lfemur 6.7124 -40.6943 -15.3939
ltibia -3.61318
lfoot -24.3962 52.5445
ltoes 16.0434
584
root -0.596097 17.5484 7.37989 7.44405 -4.19375 -7.71474
lowerback 3.26788 5.39388 6.11044
upperback -8.13187 7.81308 -0.00179398
thorax -9.68595 3.35119 -4.23524
lowerneck -13.8652 -8.86694 -5.23779
upperneck 21.3863 -13.0342 7.54821
head 9.93594 -5.6809 1.76281
rclavicle 6.60959e-014 5.56597e-015
rhumerus 35.3919 18.9444 -73.4101
rradius 69.9998
rwrist -0.274636
rhand 5.7903 -28.2882
rfingers 7.12502
rthumb 31.1235 -55.666
lclavicle 6.60959e-014 5.56597e-015
lhumerus -38.4203 -32.8199 106.553
lradius 110.554
lwrist 70.7591
lhand -34.8994 -14.066
lfingers 7.12502
lthumb -8.04768 15.7607
rfemur -2.2712 22.8525 25.3868
rtibia 1.01217
rfoot -10.9139 -18.917
rtoes -0.43511
lfemur 6.26533 -40.4697 -14.9616
ltibia -3.49968
lfoot -23.2572 51.9387
ltoes 14.9705
